<svg id="Layer_1" data-name="Layer 1" xmlns="http://www.w3.org/2000/svg" viewBox="0 0 121.35 72.3"><defs><style>.cls-1,.cls-2,.cls-3,.cls-4{fill-rule:evenodd;}.cls-2{fill:#eb9c40;}.cls-3{fill:#ffdacc;}.cls-4{fill:#a60817;}</style></defs><title>delivery</title><path class="cls-1" d="M57.68,27.52l71.11-1c.07,1.17.16,2,.17,2.91.1,14.55.15,29.1.29,43.66.07,7.19.3,14.38.45,21.57,0,1,0,2,0,3.24-.79.07-1.49.17-2.19.18l-62.75.73c-2.05,0-4.09,0-6.38,0v-11c-4-.61-6.92-3.63-11-4.42-.26,2.85-2.22,3.05-4.17,3.16-3.88.21-7.76.38-11.64.54-6.11.26-12.23.49-18.34.74-2.65.1-3-.12-3.19-2.82C9.45,77.84,8.89,70.67,8.4,63.51a34.73,34.73,0,0,1,.18-5.2c.15-1.75.38-2,2.17-2q16.49,0,33,.09c2.75,0,3,.29,3.74,3.53,2,.67,6.58.66,10.2-.07Zm68.75,1.56c-7.88-.09-15.67-.16-23.6,0,.24,22.34.49,44.35.73,66.43h23.78C127,73.41,126.73,51.46,126.43,29.08ZM97.06,81.64c-.81,0-1.71,0-2.6,0-3.89-.07-7.77-.12-11.65-.24a18.14,18.14,0,0,1-2.71-.49c0-.23,0-.46,0-.69a6.35,6.35,0,0,1,1.64-.44c2.4,0,4.79.09,7.19.16,2.23,0,4.46.19,6.69.15A3.22,3.22,0,0,0,98.29,77c-.08-1.1-.62-1.36-2.66-1.39q-6.82-.11-13.63-.25c-.72,0-1.42-.15-2.09-.22-.17-1.37.58-1.39,1.38-1.37l7.93.13c2.31,0,4.63.16,6.94.06a2.66,2.66,0,0,0-.54-5.28c-4.7.18-9.41.31-14.11.42a7.08,7.08,0,0,1-1.6-.36c.47-1.4,1.48-1.18,2.33-1.21,3.8-.11,7.6-.17,11.39-.31a17.08,17.08,0,0,0,3.16-.52c.87-.21,1.62-.87,1.42-1.74a3.2,3.2,0,0,0-1.47-1.76,4.19,4.19,0,0,0-2.16-.35C90,63,85.5,63.17,81,63.33a26.72,26.72,0,0,1-3.46.07,9.27,9.27,0,0,1-2.2-.76,19.6,19.6,0,0,1,.82-2,15.21,15.21,0,0,1,1.06-1.37c.91-1.26,1.52-2.64.72-4.13-.43-.83-2.55-.69-4.16.21-1.8,1-3.56,2.09-5.35,3.13-2.86,1.67-5.76,3.31-9.13,3.67-2.87.31-5.76.41-8.65.58-.88,0-1.76,0-2.87,0,.86,6.31,1.21,12.29.11,18,2,1,3.79,1.84,5.59,2.62a28.13,28.13,0,0,0,5.28,2,32.86,32.86,0,0,0,6.65.61c8.93.1,17.85.11,26.78.12a12.61,12.61,0,0,0,2.95-.27C97.36,85.35,97.85,84.31,97.06,81.64ZM10.93,58.29c-1,9.29.56,18.14,1.44,27,2.7.4,30.25-.89,32.32-1.47,2.56-8.3,1.57-16.58.08-25.09Zm89.9-28.89H88.62c-.47,4.71.08,29.32.72,31.3.83,0,1.73,0,2.63,0,1.4,0,2.81-.09,4.21,0,3.61.32,5.25,3.28,3.7,6.55a6.1,6.1,0,0,0-.23.72c1,1.61,1.65,3.42.79,5.17-1,1.91.82,3.71-.11,5.51a3,3,0,0,1-.35.66c-.71.78-.5,1.57-.28,2.52.73,3-.55,5.2-3.54,6.1a17.93,17.93,0,0,1-3.66.51c-1,.09-2.11,0-3.23,0v7.27c3.69.43,10.7.25,12.46-.29C102.19,91.76,101.35,31.28,100.83,29.4ZM60.1,59.57a7.29,7.29,0,0,0,1.67-.33q3.43-1.7,6.82-3.5c1.82-1,3.55-2.17,5.44-3s4-.92,5.57.72,1.12,3.67.38,5.6c-.06.15-.16.28-.22.44-.21.47-.4,1-.68,1.63l7.8-.63c.52-2.92.06-29.27-.59-31.22L60.1,29.9Zm.73,37L87.44,96a50,50,0,0,0,0-7.26L60.83,88.3Z" transform="translate(-8.36 -26.51)"/><path class="cls-2" d="M126.43,29.08c.3,22.38.6,44.33.91,66.46H103.56c-.24-22.08-.49-44.09-.73-66.43C110.76,28.92,118.55,29,126.43,29.08Z" transform="translate(-8.36 -26.51)"/><path class="cls-3" d="M97.06,81.64c.79,2.67.3,3.71-2,4.26a12.61,12.61,0,0,1-2.95.27c-8.93,0-17.85,0-26.78-.12a32.86,32.86,0,0,1-6.65-.61,28.13,28.13,0,0,1-5.28-2c-1.8-.78-3.57-1.66-5.59-2.62,1.1-5.7.75-11.68-.11-18,1.11,0,2,0,2.87,0,2.89-.17,5.78-.27,8.65-.58,3.37-.36,6.27-2,9.13-3.67,1.79-1,3.55-2.12,5.35-3.13,1.61-.9,3.73-1,4.16-.21.8,1.49.19,2.87-.72,4.13a15.21,15.21,0,0,0-1.06,1.37,19.6,19.6,0,0,0-.82,2,9.27,9.27,0,0,0,2.2.76A26.72,26.72,0,0,0,81,63.33c4.54-.16,9.08-.33,13.62-.45a4.19,4.19,0,0,1,2.16.35A3.2,3.2,0,0,1,98.21,65c.2.87-.55,1.53-1.42,1.74a17.08,17.08,0,0,1-3.16.52c-3.79.14-7.59.2-11.39.31-.85,0-1.86-.19-2.33,1.21a7.08,7.08,0,0,0,1.6.36c4.7-.11,9.41-.24,14.11-.42A2.66,2.66,0,0,1,96.16,74c-2.31.1-4.63,0-6.94-.06l-7.93-.13c-.8,0-1.55,0-1.38,1.37.67.07,1.37.21,2.09.22q6.81.15,13.63.25c2,0,2.58.29,2.66,1.39a3.22,3.22,0,0,1-2.68,3.06c-2.23,0-4.46-.1-6.69-.15-2.4-.07-4.79-.15-7.19-.16a6.35,6.35,0,0,0-1.64.44c0,.23,0,.46,0,.69a18.14,18.14,0,0,0,2.71.49c3.88.12,7.76.17,11.65.24C95.35,81.65,96.25,81.64,97.06,81.64Z" transform="translate(-8.36 -26.51)"/><path class="cls-2" d="M10.93,58.29l33.84.42c1.49,8.51,2.48,16.79-.08,25.09-2.07.58-29.62,1.87-32.32,1.47C11.49,76.43,9.9,67.58,10.93,58.29Z" transform="translate(-8.36 -26.51)"/><path class="cls-4" d="M100.83,29.4c.52,1.88,1.36,62.36.9,66.07-1.76.54-8.77.72-12.46.29V88.49c1.12,0,2.18.07,3.23,0A17.93,17.93,0,0,0,96.16,88c3-.9,4.27-3.08,3.54-6.1-.22-1-.43-1.74.28-2.52a3,3,0,0,0,.35-.66c.93-1.8-.84-3.6.11-5.51.86-1.75.24-3.56-.79-5.17a6.1,6.1,0,0,1,.23-.72c1.55-3.27-.09-6.23-3.7-6.55-1.4-.12-2.81,0-4.21,0-.9,0-1.8,0-2.63,0-.64-2-1.19-26.59-.72-31.3Z" transform="translate(-8.36 -26.51)"/><path class="cls-2" d="M60.1,59.57V29.9l26.19-.57c.65,2,1.11,28.3.59,31.22l-7.8.63c.28-.67.47-1.16.68-1.63.06-.16.16-.29.22-.44.74-1.93,1.17-4-.38-5.6S75.92,52,74,52.79s-3.62,2-5.44,3q-3.39,1.8-6.82,3.5A7.29,7.29,0,0,1,60.1,59.57Zm4.62-25.89c-.95,3.7-.52,7.26-.68,10.78-.05,1,.66,1.41,1.62,1.43,4.37,0,8.73.16,13.1.15,1.84,0,2.13-.3,2.19-2.2.1-2.89.09-5.77,0-8.66,0-1.55-.31-1.84-2-1.82C74.34,33.42,69.64,33.56,64.72,33.68Z" transform="translate(-8.36 -26.51)"/><path class="cls-2" d="M60.83,96.57V88.3l26.57.39a50,50,0,0,1,0,7.26Z" transform="translate(-8.36 -26.51)"/><path class="cls-1" d="M64.72,33.68c4.92-.12,9.62-.26,14.31-.32,1.66,0,2,.27,2,1.82,0,2.89,0,5.77,0,8.66-.06,1.9-.35,2.2-2.19,2.2-4.37,0-8.73-.1-13.1-.15-1,0-1.67-.39-1.62-1.43C64.2,40.94,63.77,37.38,64.72,33.68Zm1.13,10.59c4.51,0,8.91.7,13.52,0,.16-3.2.18-6.2,0-9H65.85Z" transform="translate(-8.36 -26.51)"/><path class="cls-4" d="M65.85,44.27v-9H79.42c.13,2.82.11,5.82,0,9C74.76,45,70.36,44.28,65.85,44.27Z" transform="translate(-8.36 -26.51)"/></svg>