<svg id="Layer_1" data-name="Layer 1" xmlns="http://www.w3.org/2000/svg" viewBox="0 0 2467.07 4063.04"><defs><style>.cls-1{fill:none;}.cls-2{fill:#fff;}.cls-3{fill:#eb9c3e;}.cls-4{fill:#dd8e65;}.cls-5{fill:#a41e22;}</style></defs><title>logore</title><rect class="cls-1" x="2052.55" y="3603.48" width="414.52" height="459.56"/><path class="cls-2" d="M138,46.94v0c.28-1.25.56-2.5.85-3.76.49-2.16,1-4.4,1.48-6.64a8.35,8.35,0,0,0-1.61-7,9.23,9.23,0,0,0-7.33-3.4h0a9.12,9.12,0,0,0-9,6.5l-.68,0a9,9,0,0,0-1.17.07c.06-.11.11-.23.16-.34a7.51,7.51,0,0,0-.07-6.11,20,20,0,0,0,.67-4.25,7.5,7.5,0,0,0-2-5.57,8,8,0,0,0-1.17-1,10,10,0,0,0-3.16-5.82,10.42,10.42,0,0,0-5.41-2.59,7.49,7.49,0,0,0-7.43-6.6H84.5A7.4,7.4,0,0,0,81.44,1a22.36,22.36,0,0,0-6.76-1A16,16,0,0,0,63.74,3.93,7.47,7.47,0,0,0,57.27.2H51.91a7.55,7.55,0,0,0-3.72,1A7.4,7.4,0,0,0,44.74.34h-16A7.49,7.49,0,0,0,21.2,7.83V26a25.39,25.39,0,0,0-3.11-.27h-.75a17.72,17.72,0,0,0-9.27,2.21,9.32,9.32,0,0,0-4.52,10c-.87,4.45-1.66,8.59-2.39,12.75a8.89,8.89,0,0,0-.68,6.53,8.47,8.47,0,0,0,6.68,5.93l.24,0a29.15,29.15,0,0,0,4.3.34,21,21,0,0,0,11.64-3.27c.33.31.67.62,1,.9a12.84,12.84,0,0,0,8,2.68,14.52,14.52,0,0,0,3.44-.42A14.87,14.87,0,0,0,39.5,62l.14-.07a11.22,11.22,0,0,0,5.54,1.42,14.39,14.39,0,0,0,2.64-.26,9.24,9.24,0,0,0,.89.29,8.57,8.57,0,0,0,4.83,4.73,18.9,18.9,0,0,0,6.92,1.4,14.85,14.85,0,0,0,7.51-2,14.32,14.32,0,0,0,4.22-3.75,6.28,6.28,0,0,0,.75,0,8.65,8.65,0,0,0,4.69-1.38,9.94,9.94,0,0,0,4.78,1.23,9.35,9.35,0,0,0,4.49-1.13A8.63,8.63,0,0,0,91.43,69,14.53,14.53,0,0,0,98.32,71a11.49,11.49,0,0,0,3.73-.62,12.61,12.61,0,0,0,7.08-6.66,10.46,10.46,0,0,0,3.67.65,13.39,13.39,0,0,0,5.09-1.08,9.9,9.9,0,0,0,6.18-1.08,11.36,11.36,0,0,0,5.16,1.21,14.83,14.83,0,0,0,3.4-.42,9.14,9.14,0,0,0,6.08-4.34,8.41,8.41,0,0,0,.68-6.73,8.6,8.6,0,0,0-1.81-3.17c.08-.36.15-.66.2-.87S137.94,47.19,138,46.94Z" transform="translate(-0.14)"/><path class="cls-3" d="M28.69,8.14H44.74V13H34.25v3.41h9.49V21H34.25v7.17H28.69Z" transform="translate(-0.14)"/><path class="cls-3" d="M51.91,8h5.36l8.54,20.21h-6l-1.46-3.59H50.65l-1.43,3.59H43.37Zm4.88,12.3-2.24-5.71L52.29,20.3Z" transform="translate(-0.14)"/><path class="cls-3" d="M66,25.23l3.1-3.7a10.24,10.24,0,0,0,6.5,2.41c1.49,0,2.3-.49,2.3-1.38V22.5c0-.8-.66-1.32-3.39-1.92-4.24-1-7.56-2.15-7.56-6.3v-.06c0-3.75,3-6.42,7.76-6.42a12.58,12.58,0,0,1,8.26,2.67l-2.78,3.92a10,10,0,0,0-5.62-2c-1.35,0-2,.58-2,1.29v.06c0,.89.72,1.35,3.47,2,4.62,1,7.48,2.49,7.48,6.25V22c0,4.1-3.24,6.54-8.11,6.54A14,14,0,0,1,66,25.23Z" transform="translate(-0.14)"/><path class="cls-3" d="M90.51,13h-6V8.14h17.59V13h-6V28.21H90.51Z" transform="translate(-0.14)"/><path class="cls-4" d="M111.12,29.64l-.73-.88A6,6,0,0,1,106.6,30a4.7,4.7,0,0,1-3.43-1.32,4.45,4.45,0,0,1-1.36-3.32,4.15,4.15,0,0,1,.82-2.61,6.55,6.55,0,0,1,2.67-1.84,8.06,8.06,0,0,1-.89-3.12,3.12,3.12,0,0,1,.9-2.32,3.16,3.16,0,0,1,2.34-.89,3.19,3.19,0,0,1,2.23.78,2.64,2.64,0,0,1,.86,2.05q0,2.22-3.09,4A27.46,27.46,0,0,0,111,26.26a6.46,6.46,0,0,0,.93-3.69l0-.75h1.95a8.92,8.92,0,0,1-2,5.62c.62.74,1.27,1.47,2,2.2Zm-1.6-2a28.7,28.7,0,0,1-3.64-5.48,3.11,3.11,0,0,0-2,2.83,3.75,3.75,0,0,0,.9,2.53,2.8,2.8,0,0,0,2.19,1A4.54,4.54,0,0,0,109.52,27.62Zm-2.46-7.52a2.78,2.78,0,0,0,1.88-2.54,1.65,1.65,0,0,0-.35-1.08,1.15,1.15,0,0,0-.91-.43,1.2,1.2,0,0,0-.93.46,1.64,1.64,0,0,0-.38,1.09A6.71,6.71,0,0,0,107.06,20.1Z" transform="translate(-0.14)"/><path class="cls-5" d="M25.34,45.27c-1.05,3.53-2.83,6.83-6,8.93s-7.09,2.45-10.84,1.88c-1.37-.26-1-1.66-.1-2.48a3,3,0,0,1,0-.73c.89-5.18,1.91-10.4,2.93-15.58a1,1,0,0,1-.45-.51,1.85,1.85,0,0,1,1-2.13,11.2,11.2,0,0,1,5.91-1.14A8.83,8.83,0,0,1,23.24,35C26.3,37.39,26.33,41.9,25.34,45.27ZM21.05,37.7a5.58,5.58,0,0,0-3.84-1.11,13.78,13.78,0,0,0-3,.13s0,0,0,.06c-1.12,5.47-2.2,10.94-3.12,16.44a10.76,10.76,0,0,0,7.31-1.56,11.12,11.12,0,0,0,3.85-6.1C22.86,43.08,23.21,39.58,21.05,37.7Z" transform="translate(-0.14)"/><path class="cls-5" d="M29.67,49.5a5.56,5.56,0,0,0,.77,2.6,3,3,0,0,0,1.94,1.5,5.18,5.18,0,0,0,3.4-.7,1.16,1.16,0,0,1,1.68.86,2.06,2.06,0,0,1-1.4,1.94,7.48,7.48,0,0,1-2,.72,5.55,5.55,0,0,1-7.12-4.06,11,11,0,0,1,2.16-9.6,9.16,9.16,0,0,1,4.77-3c2.07-.54,4.64-.06,5.72,2,1.18,2.22-.38,4.64-2.22,5.94A11.77,11.77,0,0,1,29.67,49.5Zm.64-3.66c-.06.22-.16.41-.22.64,2.16.19,4.77.19,6.35-1.4.93-.92.19-2-.89-2.38a3.94,3.94,0,0,0-3.4.69A5.6,5.6,0,0,0,30.31,45.84Z" transform="translate(-0.14)"/><path class="cls-5" d="M49,35.23c-.73,3.46-1.55,6.92-2.32,10.36-.35,1.52-1.39,5.5-1.27,7.21,0,.57.16.7.73.64a1.91,1.91,0,0,1,2.1,1.05c.29.85-.57,1.33-1.3,1.49A4.64,4.64,0,0,1,43,55.54c-1-.77-1.08-2.1-1-3.28A47.29,47.29,0,0,1,43.06,46c.83-3.66,1.69-7.31,2.45-11C45.92,33.35,49.36,33.61,49,35.23Z" transform="translate(-0.14)"/><path class="cls-5" d="M56.07,41.2c-1,4.74-1.91,9.47-3,14.18-.38,1.71-3.81,1.49-3.43-.16,1-4.71,1.94-9.44,2.92-14.18C53,39.33,56.45,39.52,56.07,41.2Zm1.68-5a2,2,0,0,1-2.26,2,2.52,2.52,0,0,1-1.36-.48,2.38,2.38,0,0,1-.73-2.76c.47-1.11,2.76-1.84,3.62-.64A3.18,3.18,0,0,1,57.75,36.21Z" transform="translate(-0.14)"/><path class="cls-5" d="M70.82,42.44a8.58,8.58,0,0,0-.64,2.45c-.19,1.08-.35,2.22-.51,3.3a48.17,48.17,0,0,1-1.55,7.7c-.7,2.09-1.85,4.32-3.88,5.49-2.54,1.47-5.34,1.15-8,.1a1.08,1.08,0,0,1-.38-1.78,2.15,2.15,0,0,1,2.38-.54,6.74,6.74,0,0,0,3.12.6c1.4,0,3.27-1.87,3.56-4.61a8.7,8.7,0,0,1-1.49.83c-1.34.64-3.34,1.08-4.55-.16-1.84-1.78-1.94-4.64-1.56-7a12.42,12.42,0,0,1,3.72-7.38c2.39-2,5.47-1.94,8.2-.54C70.28,40.79,71.29,41.33,70.82,42.44ZM66,50.2c.15-1,.31-2.07.47-3.09A34.41,34.41,0,0,1,67,43.55a4.45,4.45,0,0,0-4.52.73A8.33,8.33,0,0,0,60,49.15c-.19,1.08-.61,3.91,1,4a4.2,4.2,0,0,0,2-.6A13.44,13.44,0,0,0,66,50.2Z" transform="translate(-0.14)"/><path class="cls-5" d="M85.83,46.73c-.67,3-1.4,5.91-2,8.87-.32,1.56-3.66,1-3.34-.73.48-2.51,1.11-5,1.69-7.47A16.28,16.28,0,0,0,82.84,43a1.17,1.17,0,0,0-.06-.54s-.19-.19,0-.06l-.07-.07a1.47,1.47,0,0,0-.57,0c-2.19.1-4.23,1.78-5.78,3.18a0,0,0,0,1,0,0c-.74,3.4-1.44,6.87-2.23,10.27a1.18,1.18,0,0,1-1.72.76,2,2,0,0,1-.66-2.32c.66-3,1.33-6,1.94-9.09-.32-.38-.32-1,.28-1.53l.1,0c.6-2.95,1.27-5.94,2-8.83a1.18,1.18,0,0,1,1.72-.8,2.06,2.06,0,0,1,.66,2.32c-.38,1.62-.79,3.28-1.17,4.9A11,11,0,0,1,82,39.68c1.59,0,3.59.41,4.16,2.13S86.15,45.21,85.83,46.73Z" transform="translate(-0.14)"/><path class="cls-5" d="M97.38,42.7a29.79,29.79,0,0,1-3.28.12c-.57,2.45-1.14,4.83-1.52,7.28a22.86,22.86,0,0,0-.23,2.35c0,1.65.83,1.62,2.16.77,1.59-1,2.74,1.87,1.31,2.7s-3.56,1.74-5,.16c-1.21-1.37-1.21-3.53-1.08-5.25a48.81,48.81,0,0,1,1.46-8c-.38,0-.73.07-1.08.07-.73,0-1.75-.26-1.81-1.15s.85-1.43,1.59-1.46h1.93l.67-3.05c.45-2.23,3-.73,2.64,1.05-.13.66-.29,1.3-.44,2,.82,0,1.65,0,2.44-.13s1.75.29,1.85,1.15S98.11,42.63,97.38,42.7Z" transform="translate(-0.14)"/><path class="cls-5" d="M110.16,38.05a3.53,3.53,0,0,0-1.91-.79,2.21,2.21,0,0,0-.82.22A5.47,5.47,0,0,0,106,40c-.06.23-.09.45-.15.67h2.41c2,0,.89,3.15-.73,3.15h-2.29c-.16,1.08-.25,2.16-.41,3.33-.32,2.45-.54,4.87-.89,7.25a22.85,22.85,0,0,1-1.34,5.88,5.5,5.5,0,0,1-3,3.31c-1.66.57-3.25-.1-4.68-.86s-.22-4,1.43-3.08c1,.54,2.67,1.17,3.28.41a9,9,0,0,0,1.46-4.35c.64-3.53.92-7.09,1.3-10.62.1-.45.13-.86.19-1.3l-1.27,0c-2,.12-.86-3.09.73-3.15.35,0,.73,0,1.12,0a12.08,12.08,0,0,1,1.62-4.26,4.74,4.74,0,0,1,3-2.42,5,5,0,0,1,3.82,1C113,35.93,111.72,39.07,110.16,38.05Z" transform="translate(-0.14)"/><path class="cls-5" d="M123.35,41.87c-.47,2.32-.95,4.67-1.33,7.05a52.38,52.38,0,0,0-.8,5.85c0,1.69-3.3,1.94-3.43.35a14.12,14.12,0,0,1-1.9,1.15c-1.5.73-3.6,1.49-5,.19-1.65-1.5-1.23-4.61-1-6.61.38-2.83,1.14-5.6,1.78-8.39.16-.74.66-1.63,1.59-1.47s1.14,1.18,1,1.91c-.51,2.32-1.14,4.64-1.52,7a15.29,15.29,0,0,0-.36,3c0,.51-.12,1.43.26,1.78.67.57,2.57-.54,3.18-.92A18.92,18.92,0,0,0,118.21,51c.12-.82.28-1.68.44-2.54.38-2.35.83-4.7,1.3-7.06C120.33,39.83,123.77,40.06,123.35,41.87Z" transform="translate(-0.14)"/><path class="cls-5" d="M133,35.23c-.73,3.46-1.55,6.92-2.32,10.36-.35,1.52-1.39,5.5-1.27,7.21,0,.57.16.7.73.64a1.91,1.91,0,0,1,2.1,1.05c.29.85-.57,1.33-1.3,1.49a4.64,4.64,0,0,1-3.94-.44c-1-.77-1.08-2.1-1-3.28A47.29,47.29,0,0,1,127.11,46c.83-3.66,1.69-7.31,2.45-11C130,33.35,133.41,33.61,133,35.23Z" transform="translate(-0.14)"/></svg>