<svg xmlns="http://www.w3.org/2000/svg" viewBox="0 0 140.67 71.1"><defs><style>.cls-1{fill:#fff;}.cls-2{fill:#ec9d3f;}.cls-3{fill:#de8f65;}.cls-4{fill:#a51e22;}</style></defs><title>logo-nav</title><g id="Layer_1" data-name="Layer 1"><path class="cls-1" d="M138.13,47v0c.28-1.25.56-2.5.85-3.76.5-2.17,1-4.41,1.48-6.65a8.37,8.37,0,0,0-1.61-7,9.25,9.25,0,0,0-7.34-3.4h0a9.15,9.15,0,0,0-9,6.52c-.23,0-.45,0-.68,0a11.14,11.14,0,0,0-1.17.07c.05-.11.11-.22.16-.34a7.47,7.47,0,0,0-.08-6.11,20.28,20.28,0,0,0,.68-4.27,7.53,7.53,0,0,0-3.21-6.58A10.13,10.13,0,0,0,115,9.55,10.39,10.39,0,0,0,109.59,7,7.5,7.5,0,0,0,102.15.34H84.52A7.48,7.48,0,0,0,81.45,1a22.36,22.36,0,0,0-6.76-1,16,16,0,0,0-11,3.94A7.51,7.51,0,0,0,57.24.2H51.87a7.59,7.59,0,0,0-3.73,1A7.44,7.44,0,0,0,44.68.34H28.6a7.5,7.5,0,0,0-7.5,7.5V26A25.37,25.37,0,0,0,18,25.76h-.75A17.66,17.66,0,0,0,8,28,9.32,9.32,0,0,0,3.41,38C2.54,42.44,1.75,46.59,1,50.76A8.93,8.93,0,0,0,.34,57.3,8.47,8.47,0,0,0,7,63.24l.24,0a29.24,29.24,0,0,0,4.31.33,21,21,0,0,0,11.66-3.27c.33.31.67.62,1,.9a12.93,12.93,0,0,0,8,2.69,14.6,14.6,0,0,0,3.45-.42,14.88,14.88,0,0,0,3.71-1.37l.14-.07a11.3,11.3,0,0,0,5.56,1.42,14.43,14.43,0,0,0,2.64-.25,9.18,9.18,0,0,0,.89.28,8.58,8.58,0,0,0,4.84,4.74,18.82,18.82,0,0,0,6.94,1.41,14.92,14.92,0,0,0,7.52-2,14.23,14.23,0,0,0,4.23-3.75c.25,0,.5,0,.75,0a8.69,8.69,0,0,0,4.7-1.39,10,10,0,0,0,4.79,1.23,9.23,9.23,0,0,0,4.49-1.13,8.65,8.65,0,0,0,4.55,6.46,14.46,14.46,0,0,0,6.9,1.95,11.3,11.3,0,0,0,3.74-.63,12.52,12.52,0,0,0,7.09-6.67,10.52,10.52,0,0,0,3.68.66,13.6,13.6,0,0,0,5.1-1.08,9.77,9.77,0,0,0,1.44.1,9.87,9.87,0,0,0,4.75-1.19,11.29,11.29,0,0,0,5.18,1.21,14.86,14.86,0,0,0,3.4-.41,9.2,9.2,0,0,0,6.09-4.35,8.42,8.42,0,0,0,.68-6.75,8.6,8.6,0,0,0-1.81-3.17c.08-.36.15-.67.2-.87C138,47.6,138.07,47.29,138.13,47Z"/><path class="cls-2" d="M28.6,8.16H44.68V13H34.17v3.42h9.51v4.62H34.17v7.18H28.6Z"/><path class="cls-2" d="M51.87,8h5.37L65.8,28.26h-6l-1.47-3.59H50.61l-1.44,3.59H43.31Zm4.88,12.32-2.24-5.72-2.27,5.72Z"/><path class="cls-2" d="M66,25.28l3.1-3.71A10.23,10.23,0,0,0,75.58,24c1.49,0,2.3-.48,2.3-1.38v-.05c0-.81-.67-1.32-3.39-1.93-4.25-1-7.59-2.15-7.59-6.31v-.06c0-3.76,3-6.43,7.79-6.43A12.58,12.58,0,0,1,83,10.49l-2.79,3.93a10,10,0,0,0-5.63-2c-1.35,0-2,.57-2,1.29v.06c0,.89.72,1.35,3.48,2,4.62,1,7.49,2.5,7.49,6.26v.06c0,4.11-3.24,6.55-8.12,6.55A14.05,14.05,0,0,1,66,25.28Z"/><path class="cls-2" d="M90.55,13h-6V8.16h17.63V13h-6V28.26H90.55Z"/><path class="cls-3" d="M111.2,29.7l-.74-.89a6,6,0,0,1-3.8,1.26,4.71,4.71,0,0,1-3.43-1.32,4.43,4.43,0,0,1-1.36-3.33,4.1,4.1,0,0,1,.82-2.62A6.55,6.55,0,0,1,105.36,21a8,8,0,0,1-.88-3.12A3.31,3.31,0,0,1,110,15.41a2.63,2.63,0,0,1,.87,2.05c0,1.48-1,2.8-3.1,4A27.91,27.91,0,0,0,111,26.32a6.54,6.54,0,0,0,.93-3.7l0-.76h2a8.93,8.93,0,0,1-2,5.63c.62.74,1.27,1.48,2,2.21Zm-1.6-2a28.71,28.71,0,0,1-3.65-5.5,3.1,3.1,0,0,0-2,2.83,3.76,3.76,0,0,0,.9,2.54,2.81,2.81,0,0,0,2.2,1A4.58,4.58,0,0,0,109.6,27.68Zm-2.47-7.54A2.78,2.78,0,0,0,109,17.6a1.66,1.66,0,0,0-.35-1.09,1.14,1.14,0,0,0-.91-.42,1.19,1.19,0,0,0-.93.45,1.62,1.62,0,0,0-.38,1.1A6.76,6.76,0,0,0,107.13,20.14Z"/><path class="cls-4" d="M25.25,45.36c-1.05,3.53-2.84,6.85-6,9s-7.1,2.45-10.86,1.88c-1.37-.26-1-1.66-.09-2.49a2.23,2.23,0,0,1,0-.73c.89-5.19,1.91-10.41,2.93-15.6a1,1,0,0,1-.45-.51,1.86,1.86,0,0,1,1-2.14,11,11,0,0,1,5.92-1.14A8.89,8.89,0,0,1,23.15,35C26.2,37.46,26.24,42,25.25,45.36ZM21,37.78a5.59,5.59,0,0,0-3.85-1.11,13.25,13.25,0,0,0-3,.12s0,0,0,.07c-1.11,5.47-2.2,11-3.12,16.46a10.72,10.72,0,0,0,7.32-1.56,11.07,11.07,0,0,0,3.86-6.11C22.76,43.16,23.11,39.66,21,37.78Z"/><path class="cls-4" d="M29.59,49.59a5.64,5.64,0,0,0,.76,2.62A3,3,0,0,0,32.3,53.7a5.11,5.11,0,0,0,3.4-.7,1.17,1.17,0,0,1,1.69.86,2.07,2.07,0,0,1-1.4,2,7.69,7.69,0,0,1-2,.73,5.57,5.57,0,0,1-7.13-4.08A11,11,0,0,1,29,42.84a9.23,9.23,0,0,1,4.77-3c2.07-.54,4.65-.07,5.73,2,1.18,2.23-.38,4.65-2.22,6A11.81,11.81,0,0,1,29.59,49.59Zm.64-3.66c-.07.22-.16.42-.23.64,2.17.19,4.78.19,6.37-1.4.93-.93.19-2-.89-2.39a4,4,0,0,0-3.41.7A5.54,5.54,0,0,0,30.23,45.93Z"/><path class="cls-4" d="M48.93,35.29c-.74,3.48-1.56,7-2.33,10.39-.35,1.53-1.4,5.51-1.27,7.23,0,.57.16.7.73.63a1.93,1.93,0,0,1,2.1,1.05c.29.86-.57,1.34-1.3,1.5a4.63,4.63,0,0,1-4-.44c-1-.77-1.08-2.11-1-3.28A47.58,47.58,0,0,1,43,46.06c.83-3.66,1.69-7.33,2.46-11C45.87,33.42,49.31,33.67,48.93,35.29Z"/><path class="cls-4" d="M56,41.28c-1,4.75-1.91,9.49-3,14.21-.38,1.72-3.82,1.49-3.44-.16,1-4.72,1.95-9.46,2.93-14.21C53,39.4,56.42,39.59,56,41.28Zm1.69-5a2,2,0,0,1-2.26,2,2.55,2.55,0,0,1-1.37-.48A2.42,2.42,0,0,1,53.36,35c.48-1.12,2.77-1.85,3.63-.64A3.18,3.18,0,0,1,57.72,36.28Z"/><path class="cls-4" d="M70.81,42.52A8.75,8.75,0,0,0,70.18,45c-.19,1.08-.35,2.23-.51,3.31A48.54,48.54,0,0,1,68.11,56c-.7,2.1-1.85,4.33-3.89,5.5-2.55,1.47-5.35,1.15-8,.1a1.07,1.07,0,0,1-.38-1.78,2.16,2.16,0,0,1,2.39-.54,6.69,6.69,0,0,0,3.12.6c1.4,0,3.28-1.88,3.56-4.62a8,8,0,0,1-1.49.83c-1.34.64-3.35,1.08-4.56-.16-1.85-1.78-1.94-4.65-1.56-7.07A12.43,12.43,0,0,1,61,41.47c2.39-2,5.47-1.94,8.21-.54C70.27,40.87,71.29,41.41,70.81,42.52Zm-4.87,7.77c.16-1,.32-2.06.48-3.08.16-1.18.32-2.39.6-3.57a4.43,4.43,0,0,0-4.52.73,8.35,8.35,0,0,0-2.58,4.87c-.19,1.09-.6,3.92,1,4a4.25,4.25,0,0,0,2-.61A12.92,12.92,0,0,0,65.94,50.29Z"/><path class="cls-4" d="M85.85,46.82c-.66,3-1.4,5.93-2,8.89-.32,1.56-3.66,1-3.34-.73.47-2.52,1.11-5,1.68-7.49a15.91,15.91,0,0,0,.64-4.42,1.2,1.2,0,0,0-.06-.55s-.19-.19,0-.06l-.07-.06a1.29,1.29,0,0,0-.57,0c-2.2.09-4.24,1.78-5.8,3.18a0,0,0,0,1,0,0C75.6,49,74.9,52.46,74.1,55.87a1.18,1.18,0,0,1-1.72.76,2.06,2.06,0,0,1-.67-2.32c.67-3,1.34-6.05,2-9.11-.32-.38-.32-1,.28-1.53l.1,0c.6-3,1.27-6,2-8.85a1.17,1.17,0,0,1,1.72-.8,2.06,2.06,0,0,1,.66,2.32c-.38,1.63-.79,3.28-1.17,4.91A11.15,11.15,0,0,1,82,39.75c1.59,0,3.6.42,4.17,2.14S86.17,45.3,85.85,46.82Z"/><path class="cls-4" d="M97.42,42.78a27.34,27.34,0,0,1-3.28.13c-.57,2.45-1.14,4.84-1.53,7.29-.09.76-.22,1.78-.22,2.36,0,1.65.83,1.62,2.17.76,1.59-1,2.74,1.88,1.3,2.71s-3.56,1.75-5,.16c-1.21-1.37-1.21-3.54-1.08-5.26a49,49,0,0,1,1.47-8c-.39,0-.74.06-1.09.06-.73,0-1.75-.25-1.81-1.15s.86-1.43,1.59-1.46h1.94l.67-3.06c.45-2.23,3-.73,2.64,1.05-.12.67-.28,1.31-.44,2,.83,0,1.65,0,2.45-.13s1.75.29,1.85,1.15S98.16,42.72,97.42,42.78Z"/><path class="cls-4" d="M110.23,38.13a3.62,3.62,0,0,0-1.91-.8,2.07,2.07,0,0,0-.83.23,5.46,5.46,0,0,0-1.43,2.51c-.06.23-.1.45-.16.67h2.42c2,0,.89,3.15-.73,3.15H105.3c-.16,1.09-.26,2.17-.42,3.35-.32,2.45-.54,4.87-.89,7.26a22.52,22.52,0,0,1-1.34,5.89,5.51,5.51,0,0,1-3,3.31c-1.66.58-3.25-.09-4.68-.86s-.23-4,1.43-3.09c1,.55,2.68,1.18,3.28.42a9.07,9.07,0,0,0,1.47-4.36c.63-3.54.92-7.11,1.3-10.64.1-.45.13-.86.19-1.31l-1.27,0c-2,.13-.86-3.08.73-3.15.35,0,.73,0,1.12,0a12.2,12.2,0,0,1,1.62-4.27,4.75,4.75,0,0,1,3-2.42,5,5,0,0,1,3.82,1C113.07,36,111.79,39.15,110.23,38.13Z"/><path class="cls-4" d="M123.45,42c-.47,2.33-1,4.68-1.33,7.07a50.31,50.31,0,0,0-.8,5.86c0,1.69-3.31,1.94-3.44.35A13.63,13.63,0,0,1,116,56.38c-1.5.73-3.6,1.49-5,.19-1.66-1.5-1.24-4.62-1-6.63.38-2.83,1.15-5.6,1.78-8.4.16-.73.67-1.63,1.6-1.47s1.14,1.18,1,1.91c-.51,2.33-1.14,4.65-1.53,7a16,16,0,0,0-.35,3c0,.51-.12,1.44.26,1.79.67.57,2.58-.55,3.18-.93a19,19,0,0,0,2.46-1.72c.12-.83.28-1.68.44-2.54.38-2.36.83-4.72,1.31-7.07C120.43,39.91,123.87,40.14,123.45,42Z"/><path class="cls-4" d="M133.14,35.29c-.73,3.48-1.56,7-2.32,10.39-.35,1.53-1.4,5.51-1.28,7.23,0,.57.16.7.74.63a1.94,1.94,0,0,1,2.1,1.05c.29.86-.57,1.34-1.31,1.5a4.63,4.63,0,0,1-3.95-.44c-1-.77-1.08-2.11-1-3.28a46,46,0,0,1,1.12-6.31c.83-3.66,1.69-7.33,2.45-11C130.08,33.42,133.52,33.67,133.14,35.29Z"/></g></svg>