<?xml version="1.0" encoding="utf-8"?>
<!-- Generator: Adobe Illustrator 23.0.0, SVG Export Plug-In . SVG Version: 6.00 Build 0)  -->
<svg version="1.1" id="Layer_1" xmlns="http://www.w3.org/2000/svg" xmlns:xlink="http://www.w3.org/1999/xlink" x="0px" y="0px"
	 viewBox="0 0 66 51.14" style="enable-background:new 0 0 66 51.14;" xml:space="preserve">
<style type="text/css">
	.st0{fill:#FFFFFF;}
	.st1{fill:#EB001B;}
	.st2{fill:#FF5F00;}
	.st3{fill:#F79E1B;}
</style>
<path class="st0" d="M55.44,43.07c0,0.78-0.52,1.33-1.28,1.33c-0.78,0-1.28-0.59-1.28-1.33s0.5-1.33,1.28-1.33
	C54.92,41.73,55.44,42.33,55.44,43.07 M20.01,41.73c-0.81,0-1.28,0.59-1.28,1.33s0.47,1.33,1.28,1.33c0.74,0,1.24-0.56,1.24-1.33
	C21.24,42.33,20.75,41.73,20.01,41.73 M33.41,42.01c-0.62,0-0.99,0.4-1.08,0.99h2.18C34.4,42.35,34,42.01,33.41,42.01 M45.7,41.73
	c-0.78,0-1.24,0.59-1.24,1.33s0.47,1.33,1.24,1.33c0.77,0,1.28-0.56,1.28-1.33C46.97,42.33,46.47,41.73,45.7,41.73 M57.77,44.71
	c0,0.03,0.03,0.06,0.03,0.13c0,0.03-0.03,0.06-0.03,0.13c-0.03,0.03-0.03,0.06-0.06,0.09c-0.03,0.03-0.06,0.06-0.13,0.06
	c-0.03,0.03-0.06,0.03-0.13,0.03c-0.03,0-0.06,0-0.13-0.03c-0.03,0-0.06-0.03-0.09-0.06c-0.03-0.03-0.06-0.06-0.06-0.09
	c-0.03-0.06-0.03-0.09-0.03-0.13c0-0.06,0-0.09,0.03-0.13c0-0.06,0.03-0.09,0.06-0.13c0.04-0.04,0.06-0.04,0.09-0.06
	c0.06-0.03,0.09-0.03,0.13-0.03c0.06,0,0.09,0,0.13,0.03c0.06,0.03,0.09,0.03,0.13,0.06C57.75,44.61,57.74,44.65,57.77,44.71
	 M57.52,44.87c0.06,0,0.06-0.03,0.09-0.03c0.03-0.03,0.03-0.06,0.03-0.09s0-0.06-0.03-0.09c-0.03,0-0.06-0.03-0.13,0.35H57v-1h1v1
	h-0.57l0.13-1h0.09L57.52,44.87z M66,5.47v40.05c0,3.02-2.45,5.47-5.47,5.47H5.47C2.45,51,0,48.55,0,45.53V5.47
	C0,2.45,2.45,0,5.47,0h55.05C63.55,0,66,2.45,66,5.47 M7.68,21.44c0,8.72,7.08,15.79,15.79,15.79c3.1,0,6.15-0.93,8.72-2.63
	c-8.31-6.76-8.26-19.52,0-26.28c-2.58-1.71-5.62-2.63-8.72-2.63C14.76,5.67,7.68,12.75,7.68,21.44 M33.22,33.84
	c8.04-6.27,8-18.49,0-24.8C25.22,15.35,25.18,27.59,33.22,33.84 M17,42c0-0.45-0.65-1.1-1.68-1.13c-0.53,0-1.08,0.16-1.46,0.74
	c-0.27-0.47-0.74-0.74-1.39-0.74c-0.43,0-1.47,0.61-1.47,0.61V41h-1v4h1.26c0,0-0.29-3.28,1.03-3.28c1.16,0,0.93,1.16,0.93,3.28h0.9
	c0-1.92-0.29-3.28,1.03-3.28c1.16,0,0.94,1.14,0.94,3.28H17L17,42L17,42z M22,41h-1v0.48c-0.09-0.38-0.53-0.61-1.12-0.61
	c-1.18,0-2.08,0.93-2.08,2.2c0,1.28,0.9,2.2,2.08,2.2c0.59,0,1.03-0.22,1.12-0.62V45h1V41z M26.73,43.9c0-1.71-2.61-0.94-2.61-1.73
	c0-0.65,1.36-0.55,2.11-0.13l0.38-0.74c-1.07-0.7-3.44-0.68-3.44,0.94c0,1.63,2.61,0.95,2.61,1.71c0,0.72-1.54,0.66-2.36,0.09
	l-0.4,0.72C24.3,45.62,26.73,45.44,26.73,43.9 M30.76,45.15l-0.27-0.77C30.02,44.61,29,44.87,29,43.9V42h1v-1h-1v-1h-1v1h-1v1h1v1.9
	C28,45.91,30.11,45.54,30.76,45.15 M32.29,43h3.14c0-1.85-0.84-2.58-1.98-2.58c-1.21,0-2.07,0.9-2.07,2.2
	c0,2.34,2.58,2.72,3.85,1.62l-0.43-0.68C33.9,44.29,32.55,44.22,32.29,43 M38.85,41c-0.56-0.22-1.41-0.2-1.85,0.48V41h-1v4h1v-2.26
	c0-1.27,1.16-1.1,1.56-0.92L38.85,41z M40.23,43.07c0-1.3,1.32-1.72,2.36-0.96l0.43-0.74c-1.32-1.04-3.73-0.47-3.73,1.71
	c0,2.26,2.55,2.71,3.73,1.71l-0.43-0.74C41.55,44.79,40.23,44.34,40.23,43.07 M48,41h-1v0.48c-1.01-1.2-3.65-0.52-3.65,1.51
	c0,2.09,2.73,2.68,3.65,1.51V45h1V41z M51.68,40.98c-0.27-0.14-1.25-0.33-1.68,0.5V41h-1v4h1v-2.19c-0.05-1.26,0.97-1.17,1.41-0.96
	L51.68,40.98z M56,39h-1v2.48c-0.56-1.24-3.03-0.58-3.03,1.59c0,2.21,2.56,2.8,3.03,1.59V45h1v-5.72V39z M57,30v1h1v-1h-0.86H57z
	 M57,31h1v-1h-1V31z M57.9,44.84c0-0.06,0-0.13-0.03-0.18c-0.03-0.03-0.06-0.09-0.09-0.13c-0.03-0.03-0.09-0.06-0.13-0.09
	c-0.06,0-0.13-0.03-0.18-0.03c-0.03,0-0.09,0.03-0.16,0.03c-0.06,0.03-0.09,0.06-0.13,0.09c-0.06,0.03-0.09,0.09-0.09,0.13
	c-0.03,0.06-0.03,0.13-0.03,0.18c0,0.03,0,0.09,0.03,0.16c0,0.03,0.03,0.09,0.09,0.13c0.03,0.03,0.06,0.06,0.13,0.09
	c0.06,0.03,0.13,0.03,0.16,0.03c0.06,0,0.13,0,0.18-0.03c0.04-0.03,0.09-0.06,0.13-0.09c0.03-0.03,0.06-0.09,0.09-0.13
	C57.9,44.93,57.9,44.87,57.9,44.84 M57,31h1.1l-0.18,0.02L57.74,31H58H57v-0.23L57.85,32h0.13L58,30.77V31H57z M58.76,21.44
	c0-8.69-7.08-15.77-15.79-15.77c-3.1,0-6.14,0.94-8.72,2.63c8.22,6.76,8.35,19.55,0,26.28c2.58,1.71,5.64,2.63,8.72,2.63
	C51.68,37.23,58.76,30.16,58.76,21.44"/>
<g>
	<rect x="6.36" y="38.6" width="52.21" height="8.48"/>
	<rect x="56.08" y="30.21" width="4.2" height="4.2"/>
	<path class="st0" d="M55.25,43.07c0,0.78-0.53,1.34-1.28,1.34c-0.78,0-1.28-0.59-1.28-1.34c0-0.74,0.5-1.34,1.28-1.34
		C54.72,41.73,55.25,42.33,55.25,43.07z M19.77,41.73c-0.81,0-1.28,0.59-1.28,1.34c0,0.74,0.47,1.34,1.28,1.34
		c0.74,0,1.24-0.56,1.24-1.34C21,42.33,20.51,41.73,19.77,41.73z M33.18,41.7c-0.62,0-0.99,0.4-1.08,0.99h2.18
		C34.18,42.04,33.78,41.7,33.18,41.7z M45.49,41.73c-0.78,0-1.24,0.59-1.24,1.34c0,0.74,0.47,1.34,1.24,1.34
		c0.78,0,1.28-0.56,1.28-1.34C46.77,42.33,46.26,41.73,45.49,41.73z M57.58,44.71c0,0.03,0.03,0.06,0.03,0.13
		c0,0.03-0.03,0.06-0.03,0.13c-0.03,0.03-0.03,0.06-0.06,0.09c-0.03,0.03-0.06,0.06-0.13,0.06c-0.03,0.03-0.06,0.03-0.13,0.03
		c-0.03,0-0.06,0-0.13-0.03c-0.03,0-0.06-0.03-0.09-0.06c-0.03-0.03-0.06-0.06-0.06-0.09c-0.03-0.06-0.03-0.09-0.03-0.13
		c0-0.06,0-0.09,0.03-0.13c0-0.06,0.03-0.09,0.06-0.13c0.03-0.03,0.06-0.03,0.09-0.06c0.06-0.03,0.09-0.03,0.13-0.03
		c0.06,0,0.09,0,0.13,0.03c0.06,0.03,0.09,0.03,0.13,0.06C57.55,44.61,57.54,44.66,57.58,44.71z M57.33,44.87
		c0.06,0,0.06-0.03,0.09-0.03c0.03-0.03,0.03-0.06,0.03-0.09s0-0.06-0.03-0.09c-0.03,0-0.06-0.03-0.13-0.03h-0.18v0.4h0.09v-0.16
		h0.03l0.13,0.16h0.09L57.33,44.87L57.33,44.87z M65.88,5.48v40.18c0,3.03-2.45,5.48-5.48,5.48H5.6c-3.03,0-5.48-2.45-5.48-5.48
		V5.48C0.12,2.45,2.58,0,5.6,0H60.4C63.42,0,65.88,2.45,65.88,5.48z M7.43,21.41c0,8.73,7.09,15.81,15.81,15.81
		c3.1,0,6.15-0.94,8.73-2.64c-8.32-6.77-8.26-19.54,0-26.31c-2.58-1.71-5.63-2.64-8.73-2.64C14.52,5.63,7.43,12.72,7.43,21.41z
		 M33,33.83c8.05-6.28,8.01-18.52,0-24.83C24.99,15.32,24.95,27.57,33,33.83z M16.76,42.54c0-0.99-0.65-1.64-1.68-1.68
		c-0.53,0-1.08,0.16-1.46,0.74c-0.27-0.47-0.74-0.74-1.39-0.74c-0.43,0-0.87,0.16-1.21,0.62v-0.5h-0.94v4.19h0.94
		c0-2.16-0.29-3.45,1.03-3.45c1.16,0,0.94,1.16,0.94,3.45h0.9c0-2.09-0.29-3.45,1.03-3.45c1.16,0,0.94,1.14,0.94,3.45h0.94v-2.63
		H16.76z M21.88,40.98h-0.9v0.5c-0.31-0.38-0.74-0.62-1.34-0.62c-1.18,0-2.08,0.94-2.08,2.2c0,1.28,0.9,2.2,2.08,2.2
		c0.59,0,1.03-0.22,1.34-0.62v0.53h0.9V40.98z M26.5,43.9c0-1.71-2.61-0.94-2.61-1.74c0-0.65,1.36-0.55,2.11-0.13l0.38-0.74
		c-1.07-0.7-3.45-0.68-3.45,0.94c0,1.63,2.61,0.95,2.61,1.71c0,0.72-1.54,0.66-2.36,0.09l-0.4,0.72
		C24.06,45.63,26.5,45.44,26.5,43.9L26.5,43.9z M30.55,44.96l-0.25-0.78c-0.43,0.24-1.39,0.5-1.39-0.47v-1.89h1.5v-0.84h-1.5V39.7
		h-0.94v1.28H27.1v0.83h0.87v1.91C27.97,45.73,29.94,45.36,30.55,44.96L30.55,44.96z M32.06,43.43h3.14c0-1.85-0.84-2.58-1.99-2.58
		c-1.21,0-2.08,0.9-2.08,2.2c0,2.34,2.58,2.73,3.86,1.62l-0.43-0.68C33.67,44.72,32.33,44.66,32.06,43.43z M38.81,40.98
		c-0.53-0.23-1.32-0.21-1.74,0.5v-0.5h-0.94v4.19h0.94v-2.36c0-1.32,1.08-1.15,1.46-0.96L38.81,40.98L38.81,40.98z M40.02,43.07
		c0-1.3,1.32-1.72,2.36-0.96l0.43-0.74c-1.32-1.04-3.73-0.47-3.73,1.71c0,2.26,2.56,2.72,3.73,1.71l-0.43-0.74
		C41.33,44.79,40.02,44.35,40.02,43.07z M47.63,40.98H46.7v0.5c-0.95-1.26-3.41-0.55-3.41,1.59c0,2.19,2.56,2.82,3.41,1.59v0.53
		h0.94V40.98z M51.48,40.98c-0.27-0.14-1.26-0.33-1.74,0.5v-0.5h-0.9v4.19h0.9v-2.36c0-1.26,1.03-1.18,1.46-0.96L51.48,40.98
		L51.48,40.98z M56.08,39.28h-0.9v2.2c-0.94-1.24-3.41-0.58-3.41,1.59c0,2.21,2.57,2.81,3.41,1.59v0.53h0.9V39.28L56.08,39.28z
		 M56.95,30.71v0.53h0.09v-0.53h0.22v-0.09h-0.53v0.09H56.95L56.95,30.71z M57.7,44.84c0-0.06,0-0.13-0.03-0.18
		c-0.03-0.03-0.06-0.09-0.09-0.13c-0.03-0.03-0.09-0.06-0.13-0.09c-0.06,0-0.13-0.03-0.18-0.03c-0.03,0-0.09,0.03-0.16,0.03
		c-0.06,0.03-0.09,0.06-0.13,0.09c-0.06,0.03-0.09,0.09-0.09,0.13c-0.03,0.06-0.03,0.13-0.03,0.18c0,0.03,0,0.09,0.03,0.16
		c0,0.03,0.03,0.09,0.09,0.13c0.03,0.03,0.06,0.06,0.13,0.09c0.06,0.03,0.13,0.03,0.16,0.03c0.06,0,0.13,0,0.18-0.03
		c0.03-0.03,0.09-0.06,0.13-0.09s0.06-0.09,0.09-0.13C57.7,44.93,57.7,44.87,57.7,44.84z M58.07,30.6h-0.16L57.73,31l-0.18-0.4
		h-0.16v0.62h0.09v-0.47l0.18,0.4h0.13l0.16-0.4v0.47h0.13V30.6z M58.57,21.41c0-8.7-7.09-15.79-15.81-15.79
		c-3.1,0-6.15,0.94-8.73,2.64c8.23,6.77,8.36,19.58,0,26.31c2.58,1.71,5.65,2.64,8.73,2.64C51.48,37.22,58.57,30.15,58.57,21.41z"/>
	<path class="st1" d="M23.24,37.21c3.1,0,6.15-0.94,8.73-2.64c-8.32-6.77-8.26-19.54,0-26.31c-2.58-1.71-5.63-2.64-8.73-2.64
		C14.52,5.62,7.43,12.71,7.43,21.4C7.43,30.14,14.52,37.21,23.24,37.21z"/>
	<path class="st2" d="M33,9.01c-8.01,6.31-8.05,18.56,0,24.83C41.05,27.56,41.01,15.32,33,9.01z"/>
	<path class="st3" d="M42.76,5.63c-3.1,0-6.15,0.94-8.73,2.64c8.23,6.77,8.36,19.58,0,26.31c2.58,1.71,5.65,2.64,8.73,2.64
		c8.72,0.01,15.81-7.07,15.81-15.8C58.57,12.72,51.48,5.63,42.76,5.63z"/>
</g>
</svg>
