<?xml version="1.0" standalone="no"?>
<!DOCTYPE svg PUBLIC "-//W3C//DTD SVG 1.0//EN" "http://www.w3.org/TR/2001/REC-SVG-20010904/DTD/svg10.dtd">
<svg xmlns="http://www.w3.org/2000/svg" xmlns:xlink="http://www.w3.org/1999/xlink" id="body_1" width="39" height="39">

<g transform="matrix(0.79591835 0 0 0.79591835 0 0)">
	<g transform="matrix(0.77107066 0 0 0.7710585 0 0)">
	</g>
    <path transform="matrix(0.77107066 0 0 0.7710585 0 0)"  d="M62.725 32.308L63.548 31.482998L62.725 30.657997C 62.725 30.655996 62.725 30.655996 62.719997 30.655996L62.719997 30.655996L50.184 18.12C 49.73 17.664001 48.989 17.664001 48.531998 18.12C 48.079 18.575 48.079 19.315 48.531998 19.771L48.531998 19.771L59.077995 30.314L44.121 30.314C 43.363 18.811 33.79 9.675 22.097 9.675C 9.914 9.675 0 19.589 0 31.774C 0 43.959 9.914 53.873 22.097 53.873C 33.986 53.873 43.687 44.43 44.153 32.65L44.153 32.65L59.08 32.65L48.537 43.197C 48.080997 43.654 48.080997 44.394997 48.537 44.849C 48.766 45.079 49.064 45.190998 49.363 45.190998C 49.663998 45.190998 49.961 45.077 50.188 44.849L50.188 44.849L62.725 32.308zM22.095 51.537C 11.197999 51.537 2.3339996 42.672997 2.3339996 31.773998C 2.3339996 20.874998 11.198 12.009998 22.095 12.009998C 32.501 12.009998 41.031998 20.095999 41.785 30.314L41.785 30.314L23.316 30.314C 22.672 30.314 22.148 30.838 22.148 31.481998C 22.148 32.125 22.672 32.649998 23.316 32.649998L23.316 32.649998L41.812 32.649998C 41.351 43.141 32.699 51.537 22.095 51.537z" stroke="none" fill="#000000" fill-rule="nonzero" />
</g>
</svg>