<svg id="Layer_1" data-name="Layer 1" xmlns="http://www.w3.org/2000/svg" viewBox="0 0 65.76 51.39"><defs><style>.cls-1{fill:#fff;}.cls-2{fill:#172274;}</style></defs><title>visacard</title><rect class="cls-1" x="2.46" y="10.85" width="61.18" height="28.54"/><path class="cls-2" d="M53.83,23s.87,4.26,1.06,5.15H51.07c.38-1,1.83-5,1.83-5s.38-1,.61-1.7ZM65.77,5.5V45.91a5.49,5.49,0,0,1-5.49,5.49H5.51A5.49,5.49,0,0,1,0,45.91V5.5A5.49,5.49,0,0,1,5.51,0H60.28A5.49,5.49,0,0,1,65.77,5.5M17.48,34.27l7.2-17.68H19.84L15.36,28.66l-.49-2.45-1.59-8.13a1.9,1.9,0,0,0-2.08-1.49H3.83l-.08.35a18.28,18.28,0,0,1,4.81,1.95l4.08,15.38Zm10.81,0,2.87-17.68H26.58L23.73,34.27Zm16-5.54c0-2-1.21-3.57-3.86-4.84-1.61-.81-2.59-1.36-2.59-2.2s.83-1.53,2.64-1.53a7.84,7.84,0,0,1,3.42.68l.41.19L45,17.19a11.26,11.26,0,0,0-4.12-.76c-4.54,0-7.73,2.43-7.75,5.88,0,2.55,2.28,4,4,4.83s2.38,1.44,2.38,2.21c0,1.19-1.44,1.74-2.75,1.74a9.24,9.24,0,0,1-4.32-.95l-.6-.29-.64,4a14,14,0,0,0,5.12.95C41.12,34.8,44.26,32.41,44.3,28.73Zm16.36,6.09-3.8-18.23H53.21a2.32,2.32,0,0,0-2.46,1.51l-7,16.72h4.91l1-2.76h6.12c.15.65.57,2.76.57,2.76Z" transform="translate(-0.01 -0.01)"/></svg>